<svg width="240" height="34" viewBox="0 0 240 34" fill="none" xmlns="http://www.w3.org/2000/svg">
<path d="M48.225 8.85H60.325V11.425H55.55V27H52.875V11.425H48.225V8.85ZM67.3508 8.85H70.0258V27H67.3508V8.85ZM78.3645 27V8.85H83.4145C85.2145 8.85 86.7478 9.125 88.0145 9.675C89.2811 10.225 90.2978 10.95 91.0645 11.85C91.8478 12.75 92.4145 13.75 92.7645 14.85C93.1311 15.95 93.3145 17.0583 93.3145 18.175C93.3145 19.525 93.0728 20.7417 92.5895 21.825C92.1061 22.9083 91.4478 23.8417 90.6145 24.625C89.7811 25.3917 88.8228 25.9833 87.7395 26.4C86.6561 26.8 85.5061 27 84.2895 27H78.3645ZM81.0395 24.425H83.7895C84.7728 24.425 85.6728 24.2833 86.4895 24C87.3228 23.7167 88.0395 23.3 88.6395 22.75C89.2561 22.2 89.7311 21.525 90.0645 20.725C90.3978 19.925 90.5645 19.0083 90.5645 17.975C90.5645 16.8583 90.3728 15.8917 89.9895 15.075C89.6228 14.2417 89.1311 13.5583 88.5145 13.025C87.8978 12.475 87.2061 12.075 86.4395 11.825C85.6895 11.5583 84.9228 11.425 84.1395 11.425H81.0395V24.425ZM104.432 21.025L97.707 8.85H101.007L106.232 18.75L105.432 18.8L110.607 8.85H113.882L107.107 21.025V27H104.432V21.025ZM130.422 17.95C130.422 16.7 130.655 15.5167 131.122 14.4C131.605 13.2833 132.272 12.2917 133.122 11.425C133.972 10.5583 134.955 9.88333 136.072 9.4C137.189 8.9 138.389 8.65 139.672 8.65C140.939 8.65 142.13 8.9 143.247 9.4C144.364 9.88333 145.355 10.5583 146.222 11.425C147.089 12.2917 147.764 13.2833 148.247 14.4C148.73 15.5167 148.972 16.7 148.972 17.95C148.972 19.2333 148.73 20.4333 148.247 21.55C147.764 22.6667 147.089 23.65 146.222 24.5C145.372 25.35 144.38 26.0167 143.247 26.5C142.13 26.9667 140.939 27.2 139.672 27.2C138.389 27.2 137.189 26.9667 136.072 26.5C134.955 26.0333 133.972 25.3833 133.122 24.55C132.272 23.7 131.605 22.7167 131.122 21.6C130.655 20.4667 130.422 19.25 130.422 17.95ZM133.172 17.95C133.172 18.8833 133.339 19.7583 133.672 20.575C134.022 21.375 134.497 22.0833 135.097 22.7C135.697 23.3 136.389 23.775 137.172 24.125C137.972 24.4583 138.83 24.625 139.747 24.625C140.647 24.625 141.489 24.4583 142.272 24.125C143.055 23.775 143.739 23.3 144.322 22.7C144.922 22.0833 145.389 21.375 145.722 20.575C146.055 19.7583 146.222 18.8833 146.222 17.95C146.222 17.0167 146.047 16.15 145.697 15.35C145.364 14.5333 144.897 13.8167 144.297 13.2C143.714 12.5833 143.022 12.1 142.222 11.75C141.439 11.4 140.597 11.225 139.697 11.225C138.764 11.225 137.905 11.4 137.122 11.75C136.339 12.1 135.647 12.5833 135.047 13.2C134.447 13.8167 133.98 14.5333 133.647 15.35C133.33 16.1667 133.172 17.0333 133.172 17.95ZM161.033 8.85C162.867 8.85 164.308 9.225 165.358 9.975C166.425 10.725 166.958 11.875 166.958 13.425C166.958 14.425 166.725 15.2833 166.258 16C165.808 16.7167 165.175 17.275 164.358 17.675C163.558 18.0583 162.608 18.275 161.508 18.325L161.108 16.9C162.392 16.9333 163.533 17.1583 164.533 17.575C165.55 17.975 166.35 18.5417 166.933 19.275C167.533 19.9917 167.833 20.85 167.833 21.85C167.833 22.7667 167.658 23.5583 167.308 24.225C166.975 24.875 166.517 25.4083 165.933 25.825C165.367 26.225 164.717 26.525 163.983 26.725C163.267 26.9083 162.517 27 161.733 27H156.208V8.85H161.033ZM161.508 16.7C162.442 16.7 163.125 16.4333 163.558 15.9C163.992 15.3667 164.208 14.7333 164.208 14C164.208 13.1 163.925 12.45 163.358 12.05C162.808 11.6333 162.075 11.425 161.158 11.425H158.883V16.7H161.508ZM161.608 24.525C162.258 24.525 162.842 24.4333 163.358 24.25C163.892 24.05 164.308 23.7583 164.608 23.375C164.925 22.975 165.083 22.475 165.083 21.875C165.083 21.2083 164.9 20.6917 164.533 20.325C164.183 19.9417 163.725 19.675 163.158 19.525C162.608 19.3583 162.033 19.275 161.433 19.275H158.883V24.525H161.608ZM179.259 23.6C179.259 25.0833 178.967 26.35 178.384 27.4C177.817 28.4667 177.034 29.275 176.034 29.825C175.034 30.3917 173.884 30.7 172.584 30.75V28.15C173.75 28.0833 174.709 27.6833 175.459 26.95C176.209 26.2167 176.584 25.075 176.584 23.525V8.85H179.259V23.6ZM187.611 8.85H199.536V11.425H190.286V16.6H198.511V19.175H190.286V24.425H199.886V27H187.611V8.85ZM220.617 25.625C220.351 25.8083 219.951 26.0333 219.417 26.3C218.901 26.55 218.284 26.7667 217.567 26.95C216.867 27.1333 216.092 27.2167 215.242 27.2C213.826 27.1833 212.551 26.9333 211.417 26.45C210.301 25.9667 209.351 25.3083 208.567 24.475C207.784 23.625 207.176 22.6583 206.742 21.575C206.326 20.475 206.117 19.3083 206.117 18.075C206.117 16.7083 206.334 15.4583 206.767 14.325C207.201 13.175 207.817 12.175 208.617 11.325C209.434 10.475 210.384 9.81667 211.467 9.35C212.567 8.88333 213.767 8.65 215.067 8.65C216.184 8.65 217.192 8.8 218.092 9.1C218.992 9.4 219.751 9.75 220.367 10.15L219.317 12.65C218.834 12.3167 218.234 12 217.517 11.7C216.817 11.3833 216.034 11.225 215.167 11.225C214.317 11.225 213.509 11.4 212.742 11.75C211.992 12.0833 211.326 12.5583 210.742 13.175C210.176 13.775 209.726 14.4833 209.392 15.3C209.059 16.1 208.892 16.975 208.892 17.925C208.892 18.8917 209.042 19.7833 209.342 20.6C209.642 21.4167 210.067 22.125 210.617 22.725C211.184 23.325 211.859 23.7917 212.642 24.125C213.426 24.4583 214.309 24.625 215.292 24.625C216.226 24.625 217.042 24.4833 217.742 24.2C218.459 23.9167 219.042 23.5917 219.492 23.225L220.617 25.625ZM226.55 8.85H238.65V11.425H233.875V27H231.2V11.425H226.55V8.85Z" fill="#796E58"/>
<path d="M9.13967 2.15271H34.922L30.0878 33.726H4.30548L9.13967 2.15271Z" fill="#796E58"/>
<path d="M4.37379 0H30.6165V16.8754L27.3362 31.5733L0 31.0289L4.37379 16.8754V0Z" fill="#FFF4E8"/>
<path fill-rule="evenodd" clip-rule="evenodd" d="M14.5345 8H9.16785V12.1587H14.5253L14.5147 16.9114L12.7324 24.6347H16.8911L18.6734 16.9114V12.1587H25.2084V8H18.6734H14.5345Z" fill="#796E58"/>
</svg>
